<svg version="1.1" id="Layer_1" xmlns="http://www.w3.org/2000/svg" xmlns:xlink="http://www.w3.org/1999/xlink" x="0px" y="0px"
	 width="100%" viewBox="0 0 97 87" enable-background="new 0 0 97 87" xml:space="preserve">
<path fill="#FEFFFE" opacity="1.000000" stroke="none" 
	d="
M61.000000,88.000000 
	C40.666672,88.000000 20.833340,88.000000 1.000008,88.000000 
	C1.000005,59.000008 1.000005,30.000017 1.000003,1.000020 
	C33.333317,1.000013 65.666634,1.000013 97.999969,1.000007 
	C97.999977,29.999979 97.999977,58.999958 97.999985,87.999969 
	C85.833336,88.000000 73.666664,88.000000 61.000000,88.000000 
M52.500000,17.946863 
	C41.185577,17.947506 29.870390,18.021744 18.557201,17.903885 
	C15.168602,17.868584 13.771957,19.064310 13.796626,22.549105 
	C13.902633,37.523388 13.900636,52.499241 13.797539,67.473557 
	C13.774657,70.797119 14.758403,72.239136 18.345081,72.218193 
	C39.143028,72.096786 59.942394,72.096901 80.740387,72.214607 
	C84.628555,72.236610 86.011452,70.834846 85.970924,66.949066 
	C85.819977,52.474773 85.812981,37.996914 85.968666,23.522728 
	C86.016373,19.087566 84.168579,17.768505 79.954086,17.877825 
	C71.141396,18.106417 62.318630,17.946888 52.500000,17.946863 
z"/>
<path fill="#96E29E" opacity="1.000000" stroke="none" 
	d="
M53.000000,17.946817 
	C62.318630,17.946888 71.141396,18.106417 79.954086,17.877825 
	C84.168579,17.768505 86.016373,19.087566 85.968666,23.522728 
	C85.812981,37.996914 85.819977,52.474773 85.970924,66.949066 
	C86.011452,70.834846 84.628555,72.236610 80.740387,72.214607 
	C59.942394,72.096901 39.143028,72.096786 18.345081,72.218193 
	C14.758403,72.239136 13.774657,70.797119 13.797539,67.473557 
	C13.900636,52.499241 13.902633,37.523388 13.796626,22.549105 
	C13.771957,19.064310 15.168602,17.868584 18.557201,17.903885 
	C29.870390,18.021744 41.185577,17.947506 53.000000,17.946817 
M54.500000,68.992142 
	C63.592487,68.992142 72.684975,68.992142 81.799950,68.992142 
	C81.799950,54.645844 81.799950,41.079189 81.799950,27.395664 
	C60.089012,27.395664 38.725151,27.395664 17.328354,27.395664 
	C17.328354,41.358761 17.328354,54.931442 17.328354,68.992134 
	C29.594894,68.992134 41.547447,68.992134 54.500000,68.992142 
z"/>
<path fill="#FEFFFE" opacity="1.000000" stroke="none" 
	d="
M54.000000,68.992142 
	C41.547447,68.992134 29.594894,68.992134 17.328354,68.992134 
	C17.328354,54.931442 17.328354,41.358761 17.328354,27.395664 
	C38.725151,27.395664 60.089012,27.395664 81.799950,27.395664 
	C81.799950,41.079189 81.799950,54.645844 81.799950,68.992142 
	C72.684975,68.992142 63.592487,68.992142 54.000000,68.992142 
M50.740032,50.284313 
	C52.509117,46.535610 54.387260,42.831978 55.968540,39.005661 
	C56.350960,38.080292 55.752766,36.749668 55.605507,35.605400 
	C54.738022,36.175293 53.464497,36.544182 53.067162,37.346821 
	C49.831066,43.883953 46.722851,50.485756 43.689308,57.119820 
	C43.367207,57.824223 43.774681,58.862244 43.843693,59.745495 
	C44.783794,59.342045 46.158375,59.199070 46.584858,58.487694 
	C48.029144,56.078606 49.137703,53.468235 50.740032,50.284313 
M69.897491,50.432503 
	C70.649597,48.966946 72.343483,47.168709 71.966660,46.101925 
	C71.054207,43.518822 62.389797,40.945850 58.558773,42.260162 
	C61.692783,44.190205 64.265320,45.774467 67.105278,47.523422 
	C64.141472,49.328438 61.600090,50.876186 59.058708,52.423931 
	C59.433609,53.144329 59.808514,53.864727 60.183418,54.585125 
	C63.205936,53.324768 66.228455,52.064411 69.897491,50.432503 
M37.664787,49.969532 
	C36.189747,49.160362 34.714703,48.351192 32.977749,47.398346 
	C36.102612,45.661053 38.641796,44.249371 42.028133,42.366707 
	C37.913292,41.002613 29.673025,43.580711 28.463171,45.874004 
	C28.066631,46.625652 28.023436,47.858360 28.354805,48.645317 
	C29.443193,51.230053 37.786823,54.043587 41.405193,52.711128 
	C40.189053,51.737297 39.265236,50.997551 37.664787,49.969532 
z"/>
<path fill="#9DE4A4" opacity="1.000000" stroke="none" 
	d="
M50.557293,50.609550 
	C49.137703,53.468235 48.029144,56.078606 46.584858,58.487694 
	C46.158375,59.199070 44.783794,59.342045 43.843693,59.745495 
	C43.774681,58.862244 43.367207,57.824223 43.689308,57.119820 
	C46.722851,50.485756 49.831066,43.883953 53.067162,37.346821 
	C53.464497,36.544182 54.738022,36.175293 55.605507,35.605400 
	C55.752766,36.749668 56.350960,38.080292 55.968540,39.005661 
	C54.387260,42.831978 52.509117,46.535610 50.557293,50.609550 
z"/>
<path fill="#9FE4A6" opacity="1.000000" stroke="none" 
	d="
M69.574234,50.618279 
	C66.228455,52.064411 63.205936,53.324768 60.183418,54.585125 
	C59.808514,53.864727 59.433609,53.144329 59.058708,52.423931 
	C61.600090,50.876186 64.141472,49.328438 67.105278,47.523422 
	C64.265320,45.774467 61.692783,44.190205 58.558773,42.260162 
	C62.389797,40.945850 71.054207,43.518822 71.966660,46.101925 
	C72.343483,47.168709 70.649597,48.966946 69.574234,50.618279 
z"/>
<path fill="#9DE4A4" opacity="1.000000" stroke="none" 
	d="
M38.003105,50.113667 
	C39.265236,50.997551 40.189053,51.737297 41.405193,52.711128 
	C37.786823,54.043587 29.443193,51.230053 28.354805,48.645317 
	C28.023436,47.858360 28.066631,46.625652 28.463171,45.874004 
	C29.673025,43.580711 37.913292,41.002613 42.028133,42.366707 
	C38.641796,44.249371 36.102612,45.661053 32.977749,47.398346 
	C34.714703,48.351192 36.189747,49.160362 38.003105,50.113667 
z"/>
</svg>